<?xml version="1.0" standalone="no"?>
<!DOCTYPE svg PUBLIC "-//W3C//DTD SVG 20010904//EN"
 "http://www.w3.org/TR/2001/REC-SVG-20010904/DTD/svg10.dtd">
<svg version="1.0" xmlns="http://www.w3.org/2000/svg"
 width="1328.000000pt" height="1328.000000pt" viewBox="0 0 1328.000000 1328.000000"
 preserveAspectRatio="xMidYMid meet">

<g transform="translate(0.000000,1328.000000) scale(0.100000,-0.100000)"
fill="#000000" stroke="none">
<path d="M0 6640 l0 -6640 6640 0 6640 0 0 6640 0 6640 -6640 0 -6640 0 0
-6640z m4679 1654 c225 -33 413 -119 552 -254 88 -86 144 -167 189 -278 35
-83 70 -232 70 -299 l0 -43 -294 0 -293 0 -12 63 c-44 231 -213 347 -490 335
-123 -6 -196 -28 -269 -82 -123 -90 -150 -285 -56 -395 65 -76 174 -121 493
-207 263 -70 465 -136 563 -184 163 -80 284 -194 353 -335 59 -119 70 -178 69
-370 0 -156 -2 -177 -28 -260 -130 -424 -508 -657 -1066 -658 -287 -1 -537 67
-736 199 -73 48 -182 157 -231 230 -96 143 -163 349 -163 507 l0 47 299 0 299
0 7 -52 c29 -208 160 -356 357 -403 228 -54 479 -7 585 108 105 114 110 299
12 411 -70 80 -164 117 -591 236 -395 109 -560 189 -693 332 -74 79 -123 160
-152 251 -88 270 -23 589 164 804 131 150 377 271 616 302 108 14 334 12 446
-5z m3001 -314 l0 -260 -357 -2 -358 -3 -3 -1162 -2 -1163 -300 0 -300 0 0
1165 0 1165 -362 0 -363 -1 -3 261 -2 260 1025 0 1025 0 0 -260z m2280 0 l0
-260 -360 0 -360 0 0 -1165 0 -1165 -300 0 -300 0 0 1165 0 1165 -365 0 -365
0 0 260 0 260 1025 0 1025 0 0 -260z"/>
</g>
</svg>
